<?xml version="1.0" encoding="utf-8"?>
<!-- Generator: Adobe Illustrator 18.0.0, SVG Export Plug-In . SVG Version: 6.00 Build 0)  -->
<!DOCTYPE svg PUBLIC "-//W3C//DTD SVG 1.1//EN" "http://www.w3.org/Graphics/SVG/1.1/DTD/svg11.dtd">
<svg version="1.1" id="Layer_1" xmlns="http://www.w3.org/2000/svg" xmlns:xlink="http://www.w3.org/1999/xlink" x="0px" y="0px"
	 viewBox="0 0 36 100" enable-background="new 0 0 36 100" xml:space="preserve">
<path id="twitter_2_" fill-rule="evenodd" clip-rule="evenodd" fill="#FFFFFF" d="M24.5,0c2.8,0,4.3,1,5.8,2.3
	C31.5,2.2,33.1,1.5,34,1c0.3-0.2,0.6-0.3,0.9-0.5C34.4,2,33.7,3.1,32.6,4c-0.2,0.2-0.5,0.4-0.8,0.6c0,0,0,0,0,0
	c1.6,0,2.9-0.7,4.1-1.1c0,0,0,0,0,0c-0.7,1-1.5,2.1-2.5,2.8c-0.4,0.3-0.8,0.6-1.1,0.9c0,1.7,0,3.3-0.3,4.7
	c-1.8,8.2-6.7,13.8-14.3,16.2c-2.8,0.9-7.2,1.2-10.3,0.4c-1.6-0.4-3-0.8-4.3-1.4c-0.7-0.3-1.4-0.7-2.1-1.1c-0.2-0.1-0.4-0.3-0.6-0.4
	c0.7,0,1.5,0.2,2.3,0.1c0.7-0.1,1.4-0.1,2.1-0.2c1.7-0.4,3.1-0.8,4.4-1.6c0.6-0.4,1.5-0.8,2-1.3c-0.8,0-1.6-0.2-2.2-0.4
	c-2.4-0.8-3.7-2.4-4.6-4.7C5,17.6,7,17.8,7.5,17.4c-0.9,0-1.8-0.6-2.4-1c-1.9-1.2-3.5-3.2-3.4-6.3c0.2,0.1,0.5,0.2,0.7,0.4
	c0.5,0.2,1,0.3,1.5,0.4c0.2,0,0.7,0.2,1,0.1c0,0,0,0,0,0c-0.4-0.4-1-0.7-1.3-1.2C2.4,8.4,1.2,6,1.9,3.2c0.2-0.7,0.5-1.3,0.8-1.9
	c0,0,0,0,0,0c0.1,0.3,0.5,0.5,0.7,0.8C4,2.9,4.8,3.6,5.6,4.2c2.7,2.1,5.1,3.4,8.9,4.3c1,0.2,2.1,0.4,3.3,0.4c-0.3-1-0.2-2.5,0-3.4
	c0.7-2.3,2.1-4,4.1-4.9c0.5-0.2,1-0.4,1.6-0.5C23.9,0.1,24.2,0,24.5,0z"/>
<path id="facebook_5_" fill-rule="evenodd" clip-rule="evenodd" fill="#FFFFFF" d="M36,81.8H0c0,0,0,0,0,0V45.8c0,0,0,0,0,0h35.9
	c0,0,0,0,0,0V81.8z M15.3,52.7c-1.6,0-3.2,0.3-4.3,0.8C9.9,54,9.2,55,8.8,55.8c-0.4,0.8-0.6,1.9-0.6,3.5V61H5.5v4.2h2.7v14h5.8v-14
	h3.6l1-4.2h-4.6v-1.5c0-1,0.2-1.7,0.6-2.1c0.4-0.4,1.1-0.6,2-0.6c0.9,0,1.6,0.4,2.4,0.9l1-4C18.3,53.3,17,52.7,15.3,52.7z"/>
</svg>
